<svg xmlns="http://www.w3.org/2000/svg" width="1200" height="640" viewBox="0 0 1200 640">
  <defs>
    <linearGradient id="bg" x1="0" y1="0" x2="1" y2="1">
      <stop offset="0%" stop-color="#1e3a8a" />
      <stop offset="100%" stop-color="#2563eb" />
    </linearGradient>
    <linearGradient id="card" x1="0" y1="0" x2="1" y2="1">
      <stop offset="0%" stop-color="#ffffff" />
      <stop offset="100%" stop-color="#f3f4f6" />
    </linearGradient>
  </defs>
  <rect width="1200" height="640" rx="24" fill="#0f172a" />
  <rect x="32" y="32" width="1136" height="112" rx="24" fill="#111827" />
  <circle cx="96" cy="88" r="24" fill="#3b82f6" />
  <rect x="144" y="68" width="240" height="20" rx="10" fill="#e2e8f0" />
  <rect x="144" y="100" width="180" height="14" rx="7" fill="#94a3b8" />
  <rect x="32" y="168" width="520" height="200" rx="24" fill="url(#card)" />
  <rect x="576" y="168" width="520" height="200" rx="24" fill="url(#card)" />
  <rect x="32" y="392" width="520" height="232" rx="24" fill="url(#card)" />
  <rect x="576" y="392" width="520" height="232" rx="24" fill="url(#card)" />
  <rect x="56" y="196" width="120" height="18" rx="9" fill="#0f172a" />
  <rect x="56" y="230" width="220" height="16" rx="8" fill="#0f172a" />
  <rect x="56" y="262" width="180" height="16" rx="8" fill="#0f172a" />
  <rect x="324" y="196" width="160" height="12" rx="6" fill="#e2e8f0" />
  <rect x="324" y="222" width="280" height="12" rx="6" fill="#e2e8f0" />
  <rect x="324" y="248" width="240" height="12" rx="6" fill="#e2e8f0" />
  <rect x="600" y="196" width="84" height="84" rx="20" fill="#0f172a" />
  <rect x="700" y="196" width="88" height="88" rx="20" fill="#0f172a" />
  <rect x="812" y="196" width="88" height="88" rx="20" fill="#0f172a" />
  <rect x="584" y="290" width="464" height="20" rx="10" fill="#0f172a" />
  <rect x="584" y="326" width="420" height="12" rx="6" fill="#cbd5e1" />
  <rect x="584" y="352" width="380" height="12" rx="6" fill="#cbd5e1" />
  <rect x="584" y="378" width="440" height="12" rx="6" fill="#cbd5e1" />
  <rect x="56" y="430" width="180" height="22" rx="11" fill="#0f172a" />
  <rect x="56" y="470" width="460" height="16" rx="8" fill="#cbd5e1" />
  <rect x="56" y="500" width="460" height="16" rx="8" fill="#cbd5e1" />
  <rect x="56" y="530" width="460" height="16" rx="8" fill="#cbd5e1" />
  <rect x="600" y="430" width="220" height="20" rx="10" fill="#0f172a" />
  <rect x="600" y="470" width="520" height="18" rx="9" fill="#cbd5e1" />
  <rect x="600" y="504" width="520" height="18" rx="9" fill="#cbd5e1" />
  <rect x="600" y="538" width="520" height="18" rx="9" fill="#cbd5e1" />
  <rect x="40" y="59" width="194" height="18" rx="9" fill="#dbeafe" opacity="0.85" />
  <rect x="260" y="54" width="120" height="12" rx="6" fill="#93c5fd" />
  <rect x="396" y="54" width="70" height="12" rx="6" fill="#93c5fd" />
  <rect x="520" y="52" width="160" height="12" rx="6" fill="#93c5fd" />
  <rect x="752" y="52" width="72" height="12" rx="6" fill="#93c5fd" />
  <rect x="840" y="52" width="72" height="12" rx="6" fill="#93c5fd" />
</svg>
